<mxfile host="app.diagrams.net" modified="2023-08-15T10:04:18.154Z" agent="Mozilla/5.0 (Macintosh; Intel Mac OS X 10_15_7) AppleWebKit/537.36 (KHTML, like Gecko) Chrome/115.0.0.0 Safari/537.36" etag="f-pw4YBgtSK_1JO3mrkz" version="21.6.8" type="github">
  <diagram name="페이지-1" id="K_gbaP-3_yz5tqp1AuFb">
    <mxGraphModel dx="1018" dy="1344" grid="1" gridSize="10" guides="1" tooltips="1" connect="1" arrows="1" fold="1" page="1" pageScale="1" pageWidth="827" pageHeight="1169" math="0" shadow="0">
      <root>
        <mxCell id="0" />
        <mxCell id="1" parent="0" />
        <mxCell id="gr_2e3CQ7bJf6RmTyz9H-1" value="이용자&lt;br&gt;" style="shape=umlActor;verticalLabelPosition=bottom;verticalAlign=top;html=1;" vertex="1" parent="1">
          <mxGeometry x="36" y="340" width="30" height="60" as="geometry" />
        </mxCell>
        <mxCell id="gr_2e3CQ7bJf6RmTyz9H-2" value="게시판 서비스" style="shape=umlFrame;whiteSpace=wrap;html=1;pointerEvents=0;width=110;height=30;" vertex="1" parent="1">
          <mxGeometry x="146" y="150" width="580" height="620" as="geometry" />
        </mxCell>
        <mxCell id="gr_2e3CQ7bJf6RmTyz9H-16" style="rounded=0;orthogonalLoop=1;jettySize=auto;html=1;exitX=0;exitY=0.5;exitDx=0;exitDy=0;entryX=1;entryY=0.3333333333333333;entryDx=0;entryDy=0;entryPerimeter=0;endArrow=none;endFill=0;" edge="1" parent="1" source="gr_2e3CQ7bJf6RmTyz9H-3" target="gr_2e3CQ7bJf6RmTyz9H-1">
          <mxGeometry relative="1" as="geometry" />
        </mxCell>
        <mxCell id="gr_2e3CQ7bJf6RmTyz9H-3" value="회원 가입" style="rounded=1;whiteSpace=wrap;html=1;arcSize=40;fontColor=#000000;fillColor=#ffffc0;strokeColor=#ff0000;" vertex="1" parent="1">
          <mxGeometry x="196" y="340" width="120" height="40" as="geometry" />
        </mxCell>
        <mxCell id="gr_2e3CQ7bJf6RmTyz9H-19" style="rounded=0;orthogonalLoop=1;jettySize=auto;html=1;exitX=0;exitY=0.5;exitDx=0;exitDy=0;endArrow=none;endFill=0;" edge="1" parent="1" source="gr_2e3CQ7bJf6RmTyz9H-6">
          <mxGeometry relative="1" as="geometry">
            <mxPoint x="66" y="360" as="targetPoint" />
          </mxGeometry>
        </mxCell>
        <mxCell id="gr_2e3CQ7bJf6RmTyz9H-23" style="rounded=0;orthogonalLoop=1;jettySize=auto;html=1;exitX=1;exitY=0;exitDx=0;exitDy=0;entryX=0.5;entryY=1;entryDx=0;entryDy=0;dashed=1;" edge="1" parent="1" source="gr_2e3CQ7bJf6RmTyz9H-6" target="gr_2e3CQ7bJf6RmTyz9H-8">
          <mxGeometry relative="1" as="geometry" />
        </mxCell>
        <mxCell id="gr_2e3CQ7bJf6RmTyz9H-32" style="rounded=0;orthogonalLoop=1;jettySize=auto;html=1;exitX=1;exitY=0.25;exitDx=0;exitDy=0;entryX=0;entryY=0.5;entryDx=0;entryDy=0;endArrow=none;endFill=0;" edge="1" parent="1" source="gr_2e3CQ7bJf6RmTyz9H-6" target="gr_2e3CQ7bJf6RmTyz9H-28">
          <mxGeometry relative="1" as="geometry">
            <Array as="points">
              <mxPoint x="560" y="510" />
            </Array>
          </mxGeometry>
        </mxCell>
        <mxCell id="gr_2e3CQ7bJf6RmTyz9H-6" value="게시글 보기" style="rounded=1;whiteSpace=wrap;html=1;arcSize=40;fontColor=#000000;fillColor=#ffffc0;strokeColor=#ff0000;" vertex="1" parent="1">
          <mxGeometry x="196" y="560" width="120" height="40" as="geometry" />
        </mxCell>
        <mxCell id="gr_2e3CQ7bJf6RmTyz9H-18" style="rounded=0;orthogonalLoop=1;jettySize=auto;html=1;exitX=0;exitY=0.5;exitDx=0;exitDy=0;endArrow=none;endFill=0;" edge="1" parent="1" source="gr_2e3CQ7bJf6RmTyz9H-7">
          <mxGeometry relative="1" as="geometry">
            <mxPoint x="66" y="360" as="targetPoint" />
          </mxGeometry>
        </mxCell>
        <mxCell id="gr_2e3CQ7bJf6RmTyz9H-22" style="rounded=0;orthogonalLoop=1;jettySize=auto;html=1;exitX=1;exitY=0;exitDx=0;exitDy=0;dashed=1;entryX=0.5;entryY=1;entryDx=0;entryDy=0;" edge="1" parent="1" source="gr_2e3CQ7bJf6RmTyz9H-7" target="gr_2e3CQ7bJf6RmTyz9H-8">
          <mxGeometry relative="1" as="geometry" />
        </mxCell>
        <mxCell id="gr_2e3CQ7bJf6RmTyz9H-31" style="rounded=0;orthogonalLoop=1;jettySize=auto;html=1;exitX=1;exitY=0.5;exitDx=0;exitDy=0;entryX=0;entryY=0.5;entryDx=0;entryDy=0;endArrow=none;endFill=0;" edge="1" parent="1" source="gr_2e3CQ7bJf6RmTyz9H-7" target="gr_2e3CQ7bJf6RmTyz9H-28">
          <mxGeometry relative="1" as="geometry" />
        </mxCell>
        <mxCell id="gr_2e3CQ7bJf6RmTyz9H-7" value="게시판 보기" style="rounded=1;whiteSpace=wrap;html=1;arcSize=40;fontColor=#000000;fillColor=#ffffc0;strokeColor=#ff0000;" vertex="1" parent="1">
          <mxGeometry x="196" y="450" width="120" height="40" as="geometry" />
        </mxCell>
        <mxCell id="gr_2e3CQ7bJf6RmTyz9H-17" style="rounded=0;orthogonalLoop=1;jettySize=auto;html=1;exitX=0;exitY=0.5;exitDx=0;exitDy=0;endArrow=none;endFill=0;" edge="1" parent="1" source="gr_2e3CQ7bJf6RmTyz9H-8">
          <mxGeometry relative="1" as="geometry">
            <mxPoint x="66" y="360" as="targetPoint" />
          </mxGeometry>
        </mxCell>
        <mxCell id="gr_2e3CQ7bJf6RmTyz9H-8" value="회원 로그인" style="rounded=1;whiteSpace=wrap;html=1;arcSize=40;fontColor=#000000;fillColor=#ffffc0;strokeColor=#ff0000;" vertex="1" parent="1">
          <mxGeometry x="336" y="180" width="120" height="40" as="geometry" />
        </mxCell>
        <mxCell id="gr_2e3CQ7bJf6RmTyz9H-20" value="&amp;lt;&amp;lt;include&amp;gt;&amp;gt;" style="rounded=0;orthogonalLoop=1;jettySize=auto;html=1;exitX=0;exitY=0.5;exitDx=0;exitDy=0;entryX=1;entryY=0.5;entryDx=0;entryDy=0;startArrow=classic;startFill=1;endArrow=none;endFill=0;dashed=1;" edge="1" parent="1" source="gr_2e3CQ7bJf6RmTyz9H-9" target="gr_2e3CQ7bJf6RmTyz9H-8">
          <mxGeometry relative="1" as="geometry" />
        </mxCell>
        <mxCell id="gr_2e3CQ7bJf6RmTyz9H-30" style="rounded=0;orthogonalLoop=1;jettySize=auto;html=1;exitX=1;exitY=0.5;exitDx=0;exitDy=0;entryX=0;entryY=0.5;entryDx=0;entryDy=0;endArrow=none;endFill=0;" edge="1" parent="1" source="gr_2e3CQ7bJf6RmTyz9H-9" target="gr_2e3CQ7bJf6RmTyz9H-28">
          <mxGeometry relative="1" as="geometry" />
        </mxCell>
        <mxCell id="gr_2e3CQ7bJf6RmTyz9H-9" value="인증" style="rounded=1;whiteSpace=wrap;html=1;arcSize=40;fontColor=#000000;fillColor=#ffffc0;strokeColor=#ff0000;" vertex="1" parent="1">
          <mxGeometry x="576" y="180" width="120" height="40" as="geometry" />
        </mxCell>
        <mxCell id="gr_2e3CQ7bJf6RmTyz9H-21" value="&amp;lt;&amp;lt;extend&amp;gt;&amp;gt;" style="rounded=0;orthogonalLoop=1;jettySize=auto;html=1;exitX=0;exitY=0.5;exitDx=0;exitDy=0;entryX=1;entryY=0.5;entryDx=0;entryDy=0;dashed=1;" edge="1" parent="1" source="gr_2e3CQ7bJf6RmTyz9H-10" target="gr_2e3CQ7bJf6RmTyz9H-8">
          <mxGeometry relative="1" as="geometry" />
        </mxCell>
        <mxCell id="gr_2e3CQ7bJf6RmTyz9H-10" value="로그인 실패" style="rounded=1;whiteSpace=wrap;html=1;arcSize=40;fontColor=#000000;fillColor=#ffffc0;strokeColor=#ff0000;" vertex="1" parent="1">
          <mxGeometry x="576" y="280" width="120" height="40" as="geometry" />
        </mxCell>
        <mxCell id="gr_2e3CQ7bJf6RmTyz9H-24" style="rounded=0;orthogonalLoop=1;jettySize=auto;html=1;exitX=0;exitY=0.5;exitDx=0;exitDy=0;entryX=1;entryY=0.5;entryDx=0;entryDy=0;dashed=1;" edge="1" parent="1" source="gr_2e3CQ7bJf6RmTyz9H-11" target="gr_2e3CQ7bJf6RmTyz9H-7">
          <mxGeometry relative="1" as="geometry" />
        </mxCell>
        <mxCell id="gr_2e3CQ7bJf6RmTyz9H-11" value="게시판 정렬" style="rounded=1;whiteSpace=wrap;html=1;arcSize=40;fontColor=#000000;fillColor=#ffffc0;strokeColor=#ff0000;" vertex="1" parent="1">
          <mxGeometry x="406" y="380" width="120" height="40" as="geometry" />
        </mxCell>
        <mxCell id="gr_2e3CQ7bJf6RmTyz9H-25" style="rounded=0;orthogonalLoop=1;jettySize=auto;html=1;exitX=0;exitY=0.5;exitDx=0;exitDy=0;entryX=1;entryY=0.5;entryDx=0;entryDy=0;dashed=1;" edge="1" parent="1" source="gr_2e3CQ7bJf6RmTyz9H-12" target="gr_2e3CQ7bJf6RmTyz9H-7">
          <mxGeometry relative="1" as="geometry" />
        </mxCell>
        <mxCell id="gr_2e3CQ7bJf6RmTyz9H-12" value="게시판 검색" style="rounded=1;whiteSpace=wrap;html=1;arcSize=40;fontColor=#000000;fillColor=#ffffc0;strokeColor=#ff0000;" vertex="1" parent="1">
          <mxGeometry x="406" y="470" width="120" height="40" as="geometry" />
        </mxCell>
        <mxCell id="gr_2e3CQ7bJf6RmTyz9H-26" style="rounded=0;orthogonalLoop=1;jettySize=auto;html=1;exitX=0;exitY=0.5;exitDx=0;exitDy=0;entryX=1;entryY=0.5;entryDx=0;entryDy=0;dashed=1;" edge="1" parent="1" source="gr_2e3CQ7bJf6RmTyz9H-13" target="gr_2e3CQ7bJf6RmTyz9H-6">
          <mxGeometry relative="1" as="geometry" />
        </mxCell>
        <mxCell id="gr_2e3CQ7bJf6RmTyz9H-33" style="rounded=0;orthogonalLoop=1;jettySize=auto;html=1;exitX=1;exitY=0.5;exitDx=0;exitDy=0;endArrow=none;endFill=0;" edge="1" parent="1" source="gr_2e3CQ7bJf6RmTyz9H-13">
          <mxGeometry relative="1" as="geometry">
            <mxPoint x="790" y="330" as="targetPoint" />
          </mxGeometry>
        </mxCell>
        <mxCell id="gr_2e3CQ7bJf6RmTyz9H-13" value="게시판 쓰기/수정/삭제" style="rounded=1;whiteSpace=wrap;html=1;arcSize=40;fontColor=#000000;fillColor=#ffffc0;strokeColor=#ff0000;" vertex="1" parent="1">
          <mxGeometry x="406" y="560" width="120" height="40" as="geometry" />
        </mxCell>
        <mxCell id="gr_2e3CQ7bJf6RmTyz9H-27" style="rounded=0;orthogonalLoop=1;jettySize=auto;html=1;exitX=0;exitY=0.5;exitDx=0;exitDy=0;entryX=1;entryY=0.5;entryDx=0;entryDy=0;dashed=1;" edge="1" parent="1" source="gr_2e3CQ7bJf6RmTyz9H-14" target="gr_2e3CQ7bJf6RmTyz9H-6">
          <mxGeometry relative="1" as="geometry" />
        </mxCell>
        <mxCell id="gr_2e3CQ7bJf6RmTyz9H-34" style="rounded=0;orthogonalLoop=1;jettySize=auto;html=1;exitX=1;exitY=0.5;exitDx=0;exitDy=0;endArrow=none;endFill=0;" edge="1" parent="1" source="gr_2e3CQ7bJf6RmTyz9H-14">
          <mxGeometry relative="1" as="geometry">
            <mxPoint x="790" y="330" as="targetPoint" />
          </mxGeometry>
        </mxCell>
        <mxCell id="gr_2e3CQ7bJf6RmTyz9H-14" value="댓글 보기, 쓰기, &lt;br&gt;수정, 삭제" style="rounded=1;whiteSpace=wrap;html=1;arcSize=40;fontColor=#000000;fillColor=#ffffc0;strokeColor=#ff0000;" vertex="1" parent="1">
          <mxGeometry x="406" y="650" width="120" height="40" as="geometry" />
        </mxCell>
        <mxCell id="gr_2e3CQ7bJf6RmTyz9H-28" value="DB" style="html=1;dropTarget=0;whiteSpace=wrap;" vertex="1" parent="1">
          <mxGeometry x="790" y="300" width="70" height="70" as="geometry" />
        </mxCell>
      </root>
    </mxGraphModel>
  </diagram>
</mxfile>
